<svg width="100" height="100" viewBox="0 0 100 100" fill="none" xmlns="http://www.w3.org/2000/svg">
  <!-- Lychee voxel logo - isometric 3D pixel art -->
  <!-- Outer red ring top faces -->
  <polygon points="50,10 62,16 50,22 38,16" fill="#F07070"/>
  <polygon points="38,16 50,22 50,32 38,26" fill="#E05050"/>
  <polygon points="62,16 50,22 50,32 62,26" fill="#B03030"/>

  <polygon points="26,18 38,12 38,22 26,28" fill="#F07070"/>
  <polygon points="14,24 26,18 26,28 14,34" fill="#E05050"/>
  <polygon points="26,28 38,22 38,32 26,38" fill="#E05050"/>
  <polygon points="14,34 26,28 26,38 14,44" fill="#E05050"/>

  <polygon points="74,18 62,12 62,22 74,28" fill="#F07070"/>
  <polygon points="86,24 74,18 74,28 86,34" fill="#B03030"/>
  <polygon points="74,28 62,22 62,32 74,38" fill="#B03030"/>
  <polygon points="86,34 74,28 74,38 86,44" fill="#B03030"/>

  <!-- Middle ring - top -->
  <polygon points="50,32 62,38 50,44 38,38" fill="#F5F5F5"/>
  <polygon points="38,38 50,44 50,54 38,48" fill="#E0E0E0"/>
  <polygon points="62,38 50,44 50,54 62,48" fill="#C8C8C8"/>
  <polygon points="26,38 38,32 38,42 26,48" fill="#E0E0E0"/>
  <polygon points="26,48 38,42 38,52 26,58" fill="#E0E0E0"/>
  <polygon points="74,38 62,32 62,42 74,48" fill="#C8C8C8"/>
  <polygon points="74,48 62,42 62,52 74,58" fill="#C8C8C8"/>

  <!-- Center brown seed -->
  <polygon points="50,46 56,49 50,52 44,49" fill="#C07050"/>
  <polygon points="44,49 50,52 50,58 44,55" fill="#8B4513"/>
  <polygon points="56,49 50,52 50,58 56,55" fill="#6B3010"/>

  <!-- Bottom white ring -->
  <polygon points="38,52 50,58 50,68 38,62" fill="#E0E0E0"/>
  <polygon points="62,52 50,58 50,68 62,62" fill="#C8C8C8"/>
  <polygon points="26,58 38,52 38,62 26,68" fill="#E0E0E0"/>
  <polygon points="26,68 38,62 38,72 26,78" fill="#E0E0E0"/>
  <polygon points="74,58 62,52 62,62 74,68" fill="#C8C8C8"/>
  <polygon points="74,68 62,62 62,72 74,78" fill="#C8C8C8"/>

  <!-- Bottom red ring -->
  <polygon points="38,62 50,68 50,78 38,72" fill="#E05050"/>
  <polygon points="62,62 50,68 50,78 62,72" fill="#B03030"/>
  <polygon points="50,68 62,74 50,80 38,74" fill="#F07070"/>
  <polygon points="14,44 26,38 26,48 14,54" fill="#E05050"/>
  <polygon points="14,54 26,48 26,58 14,64" fill="#E05050"/>
  <polygon points="14,64 26,58 26,68 14,74" fill="#E05050"/>
  <polygon points="14,74 26,68 26,78 14,84" fill="#E05050"/>
  <polygon points="86,44 74,38 74,48 86,54" fill="#B03030"/>
  <polygon points="86,54 74,48 74,58 86,64" fill="#B03030"/>
  <polygon points="86,64 74,58 74,68 86,74" fill="#B03030"/>
  <polygon points="86,74 74,68 74,78 86,84" fill="#B03030"/>
  <polygon points="26,78 38,72 50,78 38,84" fill="#F07070"/>
  <polygon points="50,78 62,72 74,78 62,84" fill="#F07070"/>
  <polygon points="38,84 50,90 62,84 50,78" fill="#F07070"/>
</svg>
